<svg width="500mm" height="500mm" viewBox="0 0 500 500" xmlns="http://www.w3.org/2000/svg"><style>path{fill:#000}@media (prefers-color-scheme:dark){path{fill:#fff}}</style><path transform="translate(161 38.4)" d="m88.6 6.27-113 196h37.8l75.6-131 75.6 131h37.8l-113-196z" stroke-width=".353" style="-inkscape-stroke:none;paint-order:stroke fill markers"/><path d="m88.6 439q-14 0-23.9-9.99-9.99-9.99-9.99-23.9 0-14 9.99-23.9 9.99-9.99 23.9-9.99 14 0 23.9 9.99 9.99 9.99 9.99 23.9 0 14-9.99 23.9-9.99 9.99-23.9 9.99z" stroke-width="2.76"/><path d="m411 439q-14 0-23.9-9.99-9.99-9.99-9.99-23.9 0-14 9.99-23.9 9.99-9.99 23.9-9.99 14 0 23.9 9.99 9.99 9.99 9.99 23.9 0 14-9.99 23.9-9.99 9.99-23.9 9.99z" stroke-width="2.76"/></svg>
